<?xml version="1.0" standalone="no"?>
<!DOCTYPE svg PUBLIC "-//W3C//DTD SVG 1.1//EN" "http://www.w3.org/Graphics/SVG/1.1/DTD/svg11.dtd">
<svg width="800" height="600" version="1.1" xmlns="http://www.w3.org/2000/svg">
<rect width="800" height="600" x="0" y="0" style="fill:rgb(238,238,238);stroke:none"/>
<rect width="800" height="600" x="0" y="0" style="fill:rgb(255,255,255);stroke:none"/>
<text x="2" y="566" fill="rgb(0,0,0)" font-family="Arial" font-size="12">0</text>
<text x="2" y="511" fill="rgb(0,0,0)" font-family="Arial" font-size="12">2.5E7</text>
<text x="2" y="455" fill="rgb(0,0,0)" font-family="Arial" font-size="12">5.0E7</text>
<text x="2" y="400" fill="rgb(0,0,0)" font-family="Arial" font-size="12">7.5E7</text>
<text x="2" y="344" fill="rgb(0,0,0)" font-family="Arial" font-size="12">1.0E8</text>
<text x="2" y="288" fill="rgb(0,0,0)" font-family="Arial" font-size="12">1.25E8</text>
<text x="2" y="233" fill="rgb(0,0,0)" font-family="Arial" font-size="12">1.5E8</text>
<text x="2" y="177" fill="rgb(0,0,0)" font-family="Arial" font-size="12">1.75E8</text>
<text x="2" y="122" fill="rgb(0,0,0)" font-family="Arial" font-size="12">2.0E8</text>
<text x="2" y="66" fill="rgb(0,0,0)" font-family="Arial" font-size="12">2.25E8</text>
<text x="293" y="30" fill="rgb(0,0,0)" font-family="Arial" font-size="12">Quality score distribution over all sequences</text>
<line x1="43" y1="560" x2="790" y2="560" stroke="rgb(0,0,0)" stroke-width="1"/>
<line x1="43" y1="560" x2="43" y2="40" stroke="rgb(0,0,0)" stroke-width="1"/>
<text x="295" y="595" fill="rgb(0,0,0)" font-family="Arial" font-size="12">Mean Sequence Quality (Phred Score)</text>
<text x="52" y="575" fill="rgb(0,0,0)" font-family="Arial" font-size="12">2</text>
<rect width="25" height="520" x="68" y="40" style="fill:rgb(230,230,230);stroke:none"/>
<text x="77" y="575" fill="rgb(0,0,0)" font-family="Arial" font-size="12">3</text>
<text x="102" y="575" fill="rgb(0,0,0)" font-family="Arial" font-size="12">4</text>
<rect width="25" height="520" x="118" y="40" style="fill:rgb(230,230,230);stroke:none"/>
<text x="127" y="575" fill="rgb(0,0,0)" font-family="Arial" font-size="12">5</text>
<text x="152" y="575" fill="rgb(0,0,0)" font-family="Arial" font-size="12">6</text>
<rect width="25" height="520" x="168" y="40" style="fill:rgb(230,230,230);stroke:none"/>
<text x="177" y="575" fill="rgb(0,0,0)" font-family="Arial" font-size="12">7</text>
<text x="202" y="575" fill="rgb(0,0,0)" font-family="Arial" font-size="12">8</text>
<rect width="25" height="520" x="218" y="40" style="fill:rgb(230,230,230);stroke:none"/>
<text x="227" y="575" fill="rgb(0,0,0)" font-family="Arial" font-size="12">9</text>
<text x="248" y="575" fill="rgb(0,0,0)" font-family="Arial" font-size="12">10</text>
<rect width="25" height="520" x="268" y="40" style="fill:rgb(230,230,230);stroke:none"/>
<text x="273" y="575" fill="rgb(0,0,0)" font-family="Arial" font-size="12">11</text>
<text x="298" y="575" fill="rgb(0,0,0)" font-family="Arial" font-size="12">12</text>
<rect width="25" height="520" x="318" y="40" style="fill:rgb(230,230,230);stroke:none"/>
<text x="323" y="575" fill="rgb(0,0,0)" font-family="Arial" font-size="12">13</text>
<text x="348" y="575" fill="rgb(0,0,0)" font-family="Arial" font-size="12">14</text>
<rect width="25" height="520" x="368" y="40" style="fill:rgb(230,230,230);stroke:none"/>
<text x="373" y="575" fill="rgb(0,0,0)" font-family="Arial" font-size="12">15</text>
<text x="398" y="575" fill="rgb(0,0,0)" font-family="Arial" font-size="12">16</text>
<rect width="25" height="520" x="418" y="40" style="fill:rgb(230,230,230);stroke:none"/>
<text x="423" y="575" fill="rgb(0,0,0)" font-family="Arial" font-size="12">17</text>
<text x="448" y="575" fill="rgb(0,0,0)" font-family="Arial" font-size="12">18</text>
<rect width="25" height="520" x="468" y="40" style="fill:rgb(230,230,230);stroke:none"/>
<text x="473" y="575" fill="rgb(0,0,0)" font-family="Arial" font-size="12">19</text>
<text x="498" y="575" fill="rgb(0,0,0)" font-family="Arial" font-size="12">20</text>
<rect width="25" height="520" x="518" y="40" style="fill:rgb(230,230,230);stroke:none"/>
<text x="523" y="575" fill="rgb(0,0,0)" font-family="Arial" font-size="12">21</text>
<text x="548" y="575" fill="rgb(0,0,0)" font-family="Arial" font-size="12">22</text>
<rect width="25" height="520" x="568" y="40" style="fill:rgb(230,230,230);stroke:none"/>
<text x="573" y="575" fill="rgb(0,0,0)" font-family="Arial" font-size="12">23</text>
<text x="598" y="575" fill="rgb(0,0,0)" font-family="Arial" font-size="12">24</text>
<rect width="25" height="520" x="618" y="40" style="fill:rgb(230,230,230);stroke:none"/>
<text x="623" y="575" fill="rgb(0,0,0)" font-family="Arial" font-size="12">25</text>
<text x="648" y="575" fill="rgb(0,0,0)" font-family="Arial" font-size="12">26</text>
<rect width="25" height="520" x="668" y="40" style="fill:rgb(230,230,230);stroke:none"/>
<text x="673" y="575" fill="rgb(0,0,0)" font-family="Arial" font-size="12">27</text>
<text x="698" y="575" fill="rgb(0,0,0)" font-family="Arial" font-size="12">28</text>
<rect width="25" height="520" x="718" y="40" style="fill:rgb(230,230,230);stroke:none"/>
<text x="723" y="575" fill="rgb(0,0,0)" font-family="Arial" font-size="12">29</text>
<text x="748" y="575" fill="rgb(0,0,0)" font-family="Arial" font-size="12">30</text>
<line x1="43" y1="560" x2="790" y2="560" stroke="rgb(180,180,180)" stroke-width="1"/>
<line x1="43" y1="505" x2="790" y2="505" stroke="rgb(180,180,180)" stroke-width="1"/>
<line x1="43" y1="449" x2="790" y2="449" stroke="rgb(180,180,180)" stroke-width="1"/>
<line x1="43" y1="394" x2="790" y2="394" stroke="rgb(180,180,180)" stroke-width="1"/>
<line x1="43" y1="338" x2="790" y2="338" stroke="rgb(180,180,180)" stroke-width="1"/>
<line x1="43" y1="282" x2="790" y2="282" stroke="rgb(180,180,180)" stroke-width="1"/>
<line x1="43" y1="227" x2="790" y2="227" stroke="rgb(180,180,180)" stroke-width="1"/>
<line x1="43" y1="171" x2="790" y2="171" stroke="rgb(180,180,180)" stroke-width="1"/>
<line x1="43" y1="116" x2="790" y2="116" stroke="rgb(180,180,180)" stroke-width="1"/>
<line x1="43" y1="60" x2="790" y2="60" stroke="rgb(180,180,180)" stroke-width="1"/>
<line x1="55" y1="560" x2="80" y2="560" stroke="rgb(136,34,85)" stroke-width="1"/>
<line x1="80" y1="560" x2="105" y2="560" stroke="rgb(136,34,85)" stroke-width="1"/>
<line x1="105" y1="560" x2="130" y2="560" stroke="rgb(136,34,85)" stroke-width="1"/>
<line x1="130" y1="560" x2="155" y2="560" stroke="rgb(136,34,85)" stroke-width="1"/>
<line x1="155" y1="560" x2="180" y2="560" stroke="rgb(136,34,85)" stroke-width="1"/>
<line x1="180" y1="560" x2="205" y2="560" stroke="rgb(136,34,85)" stroke-width="1"/>
<line x1="205" y1="560" x2="230" y2="560" stroke="rgb(136,34,85)" stroke-width="1"/>
<line x1="230" y1="560" x2="255" y2="560" stroke="rgb(136,34,85)" stroke-width="1"/>
<line x1="255" y1="560" x2="280" y2="560" stroke="rgb(136,34,85)" stroke-width="1"/>
<line x1="280" y1="560" x2="305" y2="560" stroke="rgb(136,34,85)" stroke-width="1"/>
<line x1="305" y1="560" x2="330" y2="560" stroke="rgb(136,34,85)" stroke-width="1"/>
<line x1="330" y1="560" x2="355" y2="560" stroke="rgb(136,34,85)" stroke-width="1"/>
<line x1="355" y1="560" x2="380" y2="560" stroke="rgb(136,34,85)" stroke-width="1"/>
<line x1="380" y1="560" x2="405" y2="560" stroke="rgb(136,34,85)" stroke-width="1"/>
<line x1="405" y1="560" x2="430" y2="560" stroke="rgb(136,34,85)" stroke-width="1"/>
<line x1="430" y1="560" x2="455" y2="559" stroke="rgb(136,34,85)" stroke-width="1"/>
<line x1="455" y1="559" x2="480" y2="559" stroke="rgb(136,34,85)" stroke-width="1"/>
<line x1="480" y1="559" x2="505" y2="558" stroke="rgb(136,34,85)" stroke-width="1"/>
<line x1="505" y1="558" x2="530" y2="557" stroke="rgb(136,34,85)" stroke-width="1"/>
<line x1="530" y1="557" x2="555" y2="556" stroke="rgb(136,34,85)" stroke-width="1"/>
<line x1="555" y1="556" x2="580" y2="555" stroke="rgb(136,34,85)" stroke-width="1"/>
<line x1="580" y1="555" x2="605" y2="553" stroke="rgb(136,34,85)" stroke-width="1"/>
<line x1="605" y1="553" x2="630" y2="550" stroke="rgb(136,34,85)" stroke-width="1"/>
<line x1="630" y1="550" x2="655" y2="545" stroke="rgb(136,34,85)" stroke-width="1"/>
<line x1="655" y1="545" x2="680" y2="534" stroke="rgb(136,34,85)" stroke-width="1"/>
<line x1="680" y1="534" x2="705" y2="493" stroke="rgb(136,34,85)" stroke-width="1"/>
<line x1="705" y1="493" x2="730" y2="40" stroke="rgb(136,34,85)" stroke-width="1"/>
<line x1="730" y1="40" x2="755" y2="422" stroke="rgb(136,34,85)" stroke-width="1"/>
<rect width="156" height="23" x="634" y="40" style="fill:rgb(255,255,255);stroke:none"/>
<rect width="156" height="23" x="634" y="40" rx="0" ry="0" style="fill:none;stroke-width:1;stroke:rgb(192,192,192)"/>
<text x="637" y="55" fill="rgb(136,34,85)" font-family="Arial" font-size="12" font-weight="bold">Average Quality per read</text>
</svg>
