<?xml version="1.0" standalone="no"?>
<!DOCTYPE svg PUBLIC "-//W3C//DTD SVG 1.1//EN" "http://www.w3.org/Graphics/SVG/1.1/DTD/svg11.dtd">
<svg width="800" height="600" version="1.1" xmlns="http://www.w3.org/2000/svg">
<rect width="800" height="600" x="0" y="0" style="fill:rgb(238,238,238);stroke:none"/>
<rect width="800" height="600" x="0" y="0" style="fill:rgb(255,255,255);stroke:none"/>
<text x="2" y="566" fill="rgb(0,0,0)" font-family="Arial" font-size="12">0</text>
<text x="2" y="495" fill="rgb(0,0,0)" font-family="Arial" font-size="12">2000000</text>
<text x="2" y="423" fill="rgb(0,0,0)" font-family="Arial" font-size="12">4000000</text>
<text x="2" y="351" fill="rgb(0,0,0)" font-family="Arial" font-size="12">6000000</text>
<text x="2" y="279" fill="rgb(0,0,0)" font-family="Arial" font-size="12">8000000</text>
<text x="2" y="208" fill="rgb(0,0,0)" font-family="Arial" font-size="12">1.0E7</text>
<text x="2" y="136" fill="rgb(0,0,0)" font-family="Arial" font-size="12">1.2E7</text>
<text x="2" y="64" fill="rgb(0,0,0)" font-family="Arial" font-size="12">1.4E7</text>
<text x="327" y="30" fill="rgb(0,0,0)" font-family="Arial" font-size="12">GC distribution over all sequences</text>
<line x1="54" y1="560" x2="790" y2="560" stroke="rgb(0,0,0)" stroke-width="1"/>
<line x1="54" y1="560" x2="54" y2="40" stroke="rgb(0,0,0)" stroke-width="1"/>
<text x="341" y="595" fill="rgb(0,0,0)" font-family="Arial" font-size="12">Mean GC content (%)</text>
<text x="54" y="575" fill="rgb(0,0,0)" font-family="Arial" font-size="12">0</text>
<rect width="7" height="520" x="61" y="40" style="fill:rgb(230,230,230);stroke:none"/>
<text x="68" y="575" fill="rgb(0,0,0)" font-family="Arial" font-size="12">2</text>
<rect width="7" height="520" x="75" y="40" style="fill:rgb(230,230,230);stroke:none"/>
<text x="82" y="575" fill="rgb(0,0,0)" font-family="Arial" font-size="12">4</text>
<rect width="7" height="520" x="89" y="40" style="fill:rgb(230,230,230);stroke:none"/>
<text x="96" y="575" fill="rgb(0,0,0)" font-family="Arial" font-size="12">6</text>
<rect width="7" height="520" x="103" y="40" style="fill:rgb(230,230,230);stroke:none"/>
<text x="110" y="575" fill="rgb(0,0,0)" font-family="Arial" font-size="12">8</text>
<rect width="7" height="520" x="117" y="40" style="fill:rgb(230,230,230);stroke:none"/>
<rect width="7" height="520" x="131" y="40" style="fill:rgb(230,230,230);stroke:none"/>
<text x="127" y="575" fill="rgb(0,0,0)" font-family="Arial" font-size="12">11</text>
<rect width="7" height="520" x="145" y="40" style="fill:rgb(230,230,230);stroke:none"/>
<text x="148" y="575" fill="rgb(0,0,0)" font-family="Arial" font-size="12">14</text>
<rect width="7" height="520" x="159" y="40" style="fill:rgb(230,230,230);stroke:none"/>
<rect width="7" height="520" x="173" y="40" style="fill:rgb(230,230,230);stroke:none"/>
<text x="169" y="575" fill="rgb(0,0,0)" font-family="Arial" font-size="12">17</text>
<rect width="7" height="520" x="187" y="40" style="fill:rgb(230,230,230);stroke:none"/>
<text x="190" y="575" fill="rgb(0,0,0)" font-family="Arial" font-size="12">20</text>
<rect width="7" height="520" x="201" y="40" style="fill:rgb(230,230,230);stroke:none"/>
<rect width="7" height="520" x="215" y="40" style="fill:rgb(230,230,230);stroke:none"/>
<text x="211" y="575" fill="rgb(0,0,0)" font-family="Arial" font-size="12">23</text>
<rect width="7" height="520" x="229" y="40" style="fill:rgb(230,230,230);stroke:none"/>
<text x="232" y="575" fill="rgb(0,0,0)" font-family="Arial" font-size="12">26</text>
<rect width="7" height="520" x="243" y="40" style="fill:rgb(230,230,230);stroke:none"/>
<rect width="7" height="520" x="257" y="40" style="fill:rgb(230,230,230);stroke:none"/>
<text x="253" y="575" fill="rgb(0,0,0)" font-family="Arial" font-size="12">29</text>
<rect width="7" height="520" x="271" y="40" style="fill:rgb(230,230,230);stroke:none"/>
<text x="274" y="575" fill="rgb(0,0,0)" font-family="Arial" font-size="12">32</text>
<rect width="7" height="520" x="285" y="40" style="fill:rgb(230,230,230);stroke:none"/>
<rect width="7" height="520" x="299" y="40" style="fill:rgb(230,230,230);stroke:none"/>
<text x="295" y="575" fill="rgb(0,0,0)" font-family="Arial" font-size="12">35</text>
<rect width="7" height="520" x="313" y="40" style="fill:rgb(230,230,230);stroke:none"/>
<text x="316" y="575" fill="rgb(0,0,0)" font-family="Arial" font-size="12">38</text>
<rect width="7" height="520" x="327" y="40" style="fill:rgb(230,230,230);stroke:none"/>
<rect width="7" height="520" x="341" y="40" style="fill:rgb(230,230,230);stroke:none"/>
<text x="337" y="575" fill="rgb(0,0,0)" font-family="Arial" font-size="12">41</text>
<rect width="7" height="520" x="355" y="40" style="fill:rgb(230,230,230);stroke:none"/>
<text x="358" y="575" fill="rgb(0,0,0)" font-family="Arial" font-size="12">44</text>
<rect width="7" height="520" x="369" y="40" style="fill:rgb(230,230,230);stroke:none"/>
<rect width="7" height="520" x="383" y="40" style="fill:rgb(230,230,230);stroke:none"/>
<text x="379" y="575" fill="rgb(0,0,0)" font-family="Arial" font-size="12">47</text>
<rect width="7" height="520" x="397" y="40" style="fill:rgb(230,230,230);stroke:none"/>
<text x="400" y="575" fill="rgb(0,0,0)" font-family="Arial" font-size="12">50</text>
<rect width="7" height="520" x="411" y="40" style="fill:rgb(230,230,230);stroke:none"/>
<rect width="7" height="520" x="425" y="40" style="fill:rgb(230,230,230);stroke:none"/>
<text x="421" y="575" fill="rgb(0,0,0)" font-family="Arial" font-size="12">53</text>
<rect width="7" height="520" x="439" y="40" style="fill:rgb(230,230,230);stroke:none"/>
<text x="442" y="575" fill="rgb(0,0,0)" font-family="Arial" font-size="12">56</text>
<rect width="7" height="520" x="453" y="40" style="fill:rgb(230,230,230);stroke:none"/>
<rect width="7" height="520" x="467" y="40" style="fill:rgb(230,230,230);stroke:none"/>
<text x="463" y="575" fill="rgb(0,0,0)" font-family="Arial" font-size="12">59</text>
<rect width="7" height="520" x="481" y="40" style="fill:rgb(230,230,230);stroke:none"/>
<text x="484" y="575" fill="rgb(0,0,0)" font-family="Arial" font-size="12">62</text>
<rect width="7" height="520" x="495" y="40" style="fill:rgb(230,230,230);stroke:none"/>
<rect width="7" height="520" x="509" y="40" style="fill:rgb(230,230,230);stroke:none"/>
<text x="505" y="575" fill="rgb(0,0,0)" font-family="Arial" font-size="12">65</text>
<rect width="7" height="520" x="523" y="40" style="fill:rgb(230,230,230);stroke:none"/>
<text x="526" y="575" fill="rgb(0,0,0)" font-family="Arial" font-size="12">68</text>
<rect width="7" height="520" x="537" y="40" style="fill:rgb(230,230,230);stroke:none"/>
<rect width="7" height="520" x="551" y="40" style="fill:rgb(230,230,230);stroke:none"/>
<text x="547" y="575" fill="rgb(0,0,0)" font-family="Arial" font-size="12">71</text>
<rect width="7" height="520" x="565" y="40" style="fill:rgb(230,230,230);stroke:none"/>
<text x="568" y="575" fill="rgb(0,0,0)" font-family="Arial" font-size="12">74</text>
<rect width="7" height="520" x="579" y="40" style="fill:rgb(230,230,230);stroke:none"/>
<rect width="7" height="520" x="593" y="40" style="fill:rgb(230,230,230);stroke:none"/>
<text x="589" y="575" fill="rgb(0,0,0)" font-family="Arial" font-size="12">77</text>
<rect width="7" height="520" x="607" y="40" style="fill:rgb(230,230,230);stroke:none"/>
<text x="610" y="575" fill="rgb(0,0,0)" font-family="Arial" font-size="12">80</text>
<rect width="7" height="520" x="621" y="40" style="fill:rgb(230,230,230);stroke:none"/>
<rect width="7" height="520" x="635" y="40" style="fill:rgb(230,230,230);stroke:none"/>
<text x="631" y="575" fill="rgb(0,0,0)" font-family="Arial" font-size="12">83</text>
<rect width="7" height="520" x="649" y="40" style="fill:rgb(230,230,230);stroke:none"/>
<text x="652" y="575" fill="rgb(0,0,0)" font-family="Arial" font-size="12">86</text>
<rect width="7" height="520" x="663" y="40" style="fill:rgb(230,230,230);stroke:none"/>
<rect width="7" height="520" x="677" y="40" style="fill:rgb(230,230,230);stroke:none"/>
<text x="673" y="575" fill="rgb(0,0,0)" font-family="Arial" font-size="12">89</text>
<rect width="7" height="520" x="691" y="40" style="fill:rgb(230,230,230);stroke:none"/>
<text x="694" y="575" fill="rgb(0,0,0)" font-family="Arial" font-size="12">92</text>
<rect width="7" height="520" x="705" y="40" style="fill:rgb(230,230,230);stroke:none"/>
<rect width="7" height="520" x="719" y="40" style="fill:rgb(230,230,230);stroke:none"/>
<text x="715" y="575" fill="rgb(0,0,0)" font-family="Arial" font-size="12">95</text>
<rect width="7" height="520" x="733" y="40" style="fill:rgb(230,230,230);stroke:none"/>
<text x="736" y="575" fill="rgb(0,0,0)" font-family="Arial" font-size="12">98</text>
<rect width="7" height="520" x="747" y="40" style="fill:rgb(230,230,230);stroke:none"/>
<line x1="54" y1="560" x2="790" y2="560" stroke="rgb(180,180,180)" stroke-width="1"/>
<line x1="54" y1="489" x2="790" y2="489" stroke="rgb(180,180,180)" stroke-width="1"/>
<line x1="54" y1="417" x2="790" y2="417" stroke="rgb(180,180,180)" stroke-width="1"/>
<line x1="54" y1="345" x2="790" y2="345" stroke="rgb(180,180,180)" stroke-width="1"/>
<line x1="54" y1="273" x2="790" y2="273" stroke="rgb(180,180,180)" stroke-width="1"/>
<line x1="54" y1="202" x2="790" y2="202" stroke="rgb(180,180,180)" stroke-width="1"/>
<line x1="54" y1="130" x2="790" y2="130" stroke="rgb(180,180,180)" stroke-width="1"/>
<line x1="54" y1="58" x2="790" y2="58" stroke="rgb(180,180,180)" stroke-width="1"/>
<line x1="57" y1="560" x2="64" y2="560" stroke="rgb(136,34,85)" stroke-width="1"/>
<line x1="64" y1="560" x2="71" y2="560" stroke="rgb(136,34,85)" stroke-width="1"/>
<line x1="71" y1="560" x2="78" y2="560" stroke="rgb(136,34,85)" stroke-width="1"/>
<line x1="78" y1="560" x2="85" y2="560" stroke="rgb(136,34,85)" stroke-width="1"/>
<line x1="85" y1="560" x2="92" y2="560" stroke="rgb(136,34,85)" stroke-width="1"/>
<line x1="92" y1="560" x2="99" y2="560" stroke="rgb(136,34,85)" stroke-width="1"/>
<line x1="99" y1="560" x2="106" y2="560" stroke="rgb(136,34,85)" stroke-width="1"/>
<line x1="106" y1="560" x2="113" y2="560" stroke="rgb(136,34,85)" stroke-width="1"/>
<line x1="113" y1="560" x2="120" y2="559" stroke="rgb(136,34,85)" stroke-width="1"/>
<line x1="120" y1="559" x2="127" y2="559" stroke="rgb(136,34,85)" stroke-width="1"/>
<line x1="127" y1="559" x2="134" y2="559" stroke="rgb(136,34,85)" stroke-width="1"/>
<line x1="134" y1="559" x2="141" y2="558" stroke="rgb(136,34,85)" stroke-width="1"/>
<line x1="141" y1="558" x2="148" y2="557" stroke="rgb(136,34,85)" stroke-width="1"/>
<line x1="148" y1="557" x2="155" y2="556" stroke="rgb(136,34,85)" stroke-width="1"/>
<line x1="155" y1="556" x2="162" y2="555" stroke="rgb(136,34,85)" stroke-width="1"/>
<line x1="162" y1="555" x2="169" y2="552" stroke="rgb(136,34,85)" stroke-width="1"/>
<line x1="169" y1="552" x2="176" y2="548" stroke="rgb(136,34,85)" stroke-width="1"/>
<line x1="176" y1="548" x2="183" y2="542" stroke="rgb(136,34,85)" stroke-width="1"/>
<line x1="183" y1="542" x2="190" y2="532" stroke="rgb(136,34,85)" stroke-width="1"/>
<line x1="190" y1="532" x2="197" y2="520" stroke="rgb(136,34,85)" stroke-width="1"/>
<line x1="197" y1="520" x2="204" y2="504" stroke="rgb(136,34,85)" stroke-width="1"/>
<line x1="204" y1="504" x2="211" y2="484" stroke="rgb(136,34,85)" stroke-width="1"/>
<line x1="211" y1="484" x2="218" y2="461" stroke="rgb(136,34,85)" stroke-width="1"/>
<line x1="218" y1="461" x2="225" y2="434" stroke="rgb(136,34,85)" stroke-width="1"/>
<line x1="225" y1="434" x2="232" y2="404" stroke="rgb(136,34,85)" stroke-width="1"/>
<line x1="232" y1="404" x2="239" y2="371" stroke="rgb(136,34,85)" stroke-width="1"/>
<line x1="239" y1="371" x2="246" y2="337" stroke="rgb(136,34,85)" stroke-width="1"/>
<line x1="246" y1="337" x2="253" y2="301" stroke="rgb(136,34,85)" stroke-width="1"/>
<line x1="253" y1="301" x2="260" y2="265" stroke="rgb(136,34,85)" stroke-width="1"/>
<line x1="260" y1="265" x2="267" y2="231" stroke="rgb(136,34,85)" stroke-width="1"/>
<line x1="267" y1="231" x2="274" y2="198" stroke="rgb(136,34,85)" stroke-width="1"/>
<line x1="274" y1="198" x2="281" y2="167" stroke="rgb(136,34,85)" stroke-width="1"/>
<line x1="281" y1="167" x2="288" y2="138" stroke="rgb(136,34,85)" stroke-width="1"/>
<line x1="288" y1="138" x2="295" y2="111" stroke="rgb(136,34,85)" stroke-width="1"/>
<line x1="295" y1="111" x2="302" y2="86" stroke="rgb(136,34,85)" stroke-width="1"/>
<line x1="302" y1="86" x2="309" y2="64" stroke="rgb(136,34,85)" stroke-width="1"/>
<line x1="309" y1="64" x2="316" y2="48" stroke="rgb(136,34,85)" stroke-width="1"/>
<line x1="316" y1="48" x2="323" y2="40" stroke="rgb(136,34,85)" stroke-width="1"/>
<line x1="323" y1="40" x2="330" y2="43" stroke="rgb(136,34,85)" stroke-width="1"/>
<line x1="330" y1="43" x2="337" y2="56" stroke="rgb(136,34,85)" stroke-width="1"/>
<line x1="337" y1="56" x2="344" y2="77" stroke="rgb(136,34,85)" stroke-width="1"/>
<line x1="344" y1="77" x2="351" y2="105" stroke="rgb(136,34,85)" stroke-width="1"/>
<line x1="351" y1="105" x2="358" y2="134" stroke="rgb(136,34,85)" stroke-width="1"/>
<line x1="358" y1="134" x2="365" y2="162" stroke="rgb(136,34,85)" stroke-width="1"/>
<line x1="365" y1="162" x2="372" y2="186" stroke="rgb(136,34,85)" stroke-width="1"/>
<line x1="372" y1="186" x2="379" y2="205" stroke="rgb(136,34,85)" stroke-width="1"/>
<line x1="379" y1="205" x2="386" y2="220" stroke="rgb(136,34,85)" stroke-width="1"/>
<line x1="386" y1="220" x2="393" y2="233" stroke="rgb(136,34,85)" stroke-width="1"/>
<line x1="393" y1="233" x2="400" y2="246" stroke="rgb(136,34,85)" stroke-width="1"/>
<line x1="400" y1="246" x2="407" y2="262" stroke="rgb(136,34,85)" stroke-width="1"/>
<line x1="407" y1="262" x2="414" y2="280" stroke="rgb(136,34,85)" stroke-width="1"/>
<line x1="414" y1="280" x2="421" y2="300" stroke="rgb(136,34,85)" stroke-width="1"/>
<line x1="421" y1="300" x2="428" y2="320" stroke="rgb(136,34,85)" stroke-width="1"/>
<line x1="428" y1="320" x2="435" y2="338" stroke="rgb(136,34,85)" stroke-width="1"/>
<line x1="435" y1="338" x2="442" y2="353" stroke="rgb(136,34,85)" stroke-width="1"/>
<line x1="442" y1="353" x2="449" y2="367" stroke="rgb(136,34,85)" stroke-width="1"/>
<line x1="449" y1="367" x2="456" y2="382" stroke="rgb(136,34,85)" stroke-width="1"/>
<line x1="456" y1="382" x2="463" y2="398" stroke="rgb(136,34,85)" stroke-width="1"/>
<line x1="463" y1="398" x2="470" y2="416" stroke="rgb(136,34,85)" stroke-width="1"/>
<line x1="470" y1="416" x2="477" y2="435" stroke="rgb(136,34,85)" stroke-width="1"/>
<line x1="477" y1="435" x2="484" y2="454" stroke="rgb(136,34,85)" stroke-width="1"/>
<line x1="484" y1="454" x2="491" y2="470" stroke="rgb(136,34,85)" stroke-width="1"/>
<line x1="491" y1="470" x2="498" y2="484" stroke="rgb(136,34,85)" stroke-width="1"/>
<line x1="498" y1="484" x2="505" y2="496" stroke="rgb(136,34,85)" stroke-width="1"/>
<line x1="505" y1="496" x2="512" y2="506" stroke="rgb(136,34,85)" stroke-width="1"/>
<line x1="512" y1="506" x2="519" y2="515" stroke="rgb(136,34,85)" stroke-width="1"/>
<line x1="519" y1="515" x2="526" y2="523" stroke="rgb(136,34,85)" stroke-width="1"/>
<line x1="526" y1="523" x2="533" y2="529" stroke="rgb(136,34,85)" stroke-width="1"/>
<line x1="533" y1="529" x2="540" y2="535" stroke="rgb(136,34,85)" stroke-width="1"/>
<line x1="540" y1="535" x2="547" y2="539" stroke="rgb(136,34,85)" stroke-width="1"/>
<line x1="547" y1="539" x2="554" y2="543" stroke="rgb(136,34,85)" stroke-width="1"/>
<line x1="554" y1="543" x2="561" y2="546" stroke="rgb(136,34,85)" stroke-width="1"/>
<line x1="561" y1="546" x2="568" y2="549" stroke="rgb(136,34,85)" stroke-width="1"/>
<line x1="568" y1="549" x2="575" y2="550" stroke="rgb(136,34,85)" stroke-width="1"/>
<line x1="575" y1="550" x2="582" y2="552" stroke="rgb(136,34,85)" stroke-width="1"/>
<line x1="582" y1="552" x2="589" y2="553" stroke="rgb(136,34,85)" stroke-width="1"/>
<line x1="589" y1="553" x2="596" y2="554" stroke="rgb(136,34,85)" stroke-width="1"/>
<line x1="596" y1="554" x2="603" y2="554" stroke="rgb(136,34,85)" stroke-width="1"/>
<line x1="603" y1="554" x2="610" y2="555" stroke="rgb(136,34,85)" stroke-width="1"/>
<line x1="610" y1="555" x2="617" y2="556" stroke="rgb(136,34,85)" stroke-width="1"/>
<line x1="617" y1="556" x2="624" y2="557" stroke="rgb(136,34,85)" stroke-width="1"/>
<line x1="624" y1="557" x2="631" y2="557" stroke="rgb(136,34,85)" stroke-width="1"/>
<line x1="631" y1="557" x2="638" y2="558" stroke="rgb(136,34,85)" stroke-width="1"/>
<line x1="638" y1="558" x2="645" y2="558" stroke="rgb(136,34,85)" stroke-width="1"/>
<line x1="645" y1="558" x2="652" y2="558" stroke="rgb(136,34,85)" stroke-width="1"/>
<line x1="652" y1="558" x2="659" y2="559" stroke="rgb(136,34,85)" stroke-width="1"/>
<line x1="659" y1="559" x2="666" y2="559" stroke="rgb(136,34,85)" stroke-width="1"/>
<line x1="666" y1="559" x2="673" y2="560" stroke="rgb(136,34,85)" stroke-width="1"/>
<line x1="673" y1="560" x2="680" y2="560" stroke="rgb(136,34,85)" stroke-width="1"/>
<line x1="680" y1="560" x2="687" y2="560" stroke="rgb(136,34,85)" stroke-width="1"/>
<line x1="687" y1="560" x2="694" y2="560" stroke="rgb(136,34,85)" stroke-width="1"/>
<line x1="694" y1="560" x2="701" y2="560" stroke="rgb(136,34,85)" stroke-width="1"/>
<line x1="701" y1="560" x2="708" y2="560" stroke="rgb(136,34,85)" stroke-width="1"/>
<line x1="708" y1="560" x2="715" y2="560" stroke="rgb(136,34,85)" stroke-width="1"/>
<line x1="715" y1="560" x2="722" y2="560" stroke="rgb(136,34,85)" stroke-width="1"/>
<line x1="722" y1="560" x2="729" y2="560" stroke="rgb(136,34,85)" stroke-width="1"/>
<line x1="729" y1="560" x2="736" y2="560" stroke="rgb(136,34,85)" stroke-width="1"/>
<line x1="736" y1="560" x2="743" y2="560" stroke="rgb(136,34,85)" stroke-width="1"/>
<line x1="743" y1="560" x2="750" y2="560" stroke="rgb(136,34,85)" stroke-width="1"/>
<line x1="750" y1="560" x2="757" y2="560" stroke="rgb(136,34,85)" stroke-width="1"/>
<line x1="57" y1="559" x2="64" y2="558" stroke="rgb(51,34,136)" stroke-width="1"/>
<line x1="64" y1="558" x2="71" y2="557" stroke="rgb(51,34,136)" stroke-width="1"/>
<line x1="71" y1="557" x2="78" y2="556" stroke="rgb(51,34,136)" stroke-width="1"/>
<line x1="78" y1="556" x2="85" y2="555" stroke="rgb(51,34,136)" stroke-width="1"/>
<line x1="85" y1="555" x2="92" y2="553" stroke="rgb(51,34,136)" stroke-width="1"/>
<line x1="92" y1="553" x2="99" y2="551" stroke="rgb(51,34,136)" stroke-width="1"/>
<line x1="99" y1="551" x2="106" y2="549" stroke="rgb(51,34,136)" stroke-width="1"/>
<line x1="106" y1="549" x2="113" y2="546" stroke="rgb(51,34,136)" stroke-width="1"/>
<line x1="113" y1="546" x2="120" y2="542" stroke="rgb(51,34,136)" stroke-width="1"/>
<line x1="120" y1="542" x2="127" y2="538" stroke="rgb(51,34,136)" stroke-width="1"/>
<line x1="127" y1="538" x2="134" y2="532" stroke="rgb(51,34,136)" stroke-width="1"/>
<line x1="134" y1="532" x2="141" y2="526" stroke="rgb(51,34,136)" stroke-width="1"/>
<line x1="141" y1="526" x2="148" y2="519" stroke="rgb(51,34,136)" stroke-width="1"/>
<line x1="148" y1="519" x2="155" y2="510" stroke="rgb(51,34,136)" stroke-width="1"/>
<line x1="155" y1="510" x2="162" y2="500" stroke="rgb(51,34,136)" stroke-width="1"/>
<line x1="162" y1="500" x2="169" y2="489" stroke="rgb(51,34,136)" stroke-width="1"/>
<line x1="169" y1="489" x2="176" y2="476" stroke="rgb(51,34,136)" stroke-width="1"/>
<line x1="176" y1="476" x2="183" y2="462" stroke="rgb(51,34,136)" stroke-width="1"/>
<line x1="183" y1="462" x2="190" y2="446" stroke="rgb(51,34,136)" stroke-width="1"/>
<line x1="190" y1="446" x2="197" y2="429" stroke="rgb(51,34,136)" stroke-width="1"/>
<line x1="197" y1="429" x2="204" y2="410" stroke="rgb(51,34,136)" stroke-width="1"/>
<line x1="204" y1="410" x2="211" y2="389" stroke="rgb(51,34,136)" stroke-width="1"/>
<line x1="211" y1="389" x2="218" y2="368" stroke="rgb(51,34,136)" stroke-width="1"/>
<line x1="218" y1="368" x2="225" y2="345" stroke="rgb(51,34,136)" stroke-width="1"/>
<line x1="225" y1="345" x2="232" y2="322" stroke="rgb(51,34,136)" stroke-width="1"/>
<line x1="232" y1="322" x2="239" y2="298" stroke="rgb(51,34,136)" stroke-width="1"/>
<line x1="239" y1="298" x2="246" y2="274" stroke="rgb(51,34,136)" stroke-width="1"/>
<line x1="246" y1="274" x2="253" y2="250" stroke="rgb(51,34,136)" stroke-width="1"/>
<line x1="253" y1="250" x2="260" y2="226" stroke="rgb(51,34,136)" stroke-width="1"/>
<line x1="260" y1="226" x2="267" y2="204" stroke="rgb(51,34,136)" stroke-width="1"/>
<line x1="267" y1="204" x2="274" y2="183" stroke="rgb(51,34,136)" stroke-width="1"/>
<line x1="274" y1="183" x2="281" y2="164" stroke="rgb(51,34,136)" stroke-width="1"/>
<line x1="281" y1="164" x2="288" y2="147" stroke="rgb(51,34,136)" stroke-width="1"/>
<line x1="288" y1="147" x2="295" y2="132" stroke="rgb(51,34,136)" stroke-width="1"/>
<line x1="295" y1="132" x2="302" y2="120" stroke="rgb(51,34,136)" stroke-width="1"/>
<line x1="302" y1="120" x2="309" y2="112" stroke="rgb(51,34,136)" stroke-width="1"/>
<line x1="309" y1="112" x2="316" y2="107" stroke="rgb(51,34,136)" stroke-width="1"/>
<line x1="316" y1="107" x2="323" y2="105" stroke="rgb(51,34,136)" stroke-width="1"/>
<line x1="323" y1="105" x2="330" y2="107" stroke="rgb(51,34,136)" stroke-width="1"/>
<line x1="330" y1="107" x2="337" y2="112" stroke="rgb(51,34,136)" stroke-width="1"/>
<line x1="337" y1="112" x2="344" y2="120" stroke="rgb(51,34,136)" stroke-width="1"/>
<line x1="344" y1="120" x2="351" y2="132" stroke="rgb(51,34,136)" stroke-width="1"/>
<line x1="351" y1="132" x2="358" y2="147" stroke="rgb(51,34,136)" stroke-width="1"/>
<line x1="358" y1="147" x2="365" y2="164" stroke="rgb(51,34,136)" stroke-width="1"/>
<line x1="365" y1="164" x2="372" y2="183" stroke="rgb(51,34,136)" stroke-width="1"/>
<line x1="372" y1="183" x2="379" y2="204" stroke="rgb(51,34,136)" stroke-width="1"/>
<line x1="379" y1="204" x2="386" y2="226" stroke="rgb(51,34,136)" stroke-width="1"/>
<line x1="386" y1="226" x2="393" y2="250" stroke="rgb(51,34,136)" stroke-width="1"/>
<line x1="393" y1="250" x2="400" y2="274" stroke="rgb(51,34,136)" stroke-width="1"/>
<line x1="400" y1="274" x2="407" y2="298" stroke="rgb(51,34,136)" stroke-width="1"/>
<line x1="407" y1="298" x2="414" y2="322" stroke="rgb(51,34,136)" stroke-width="1"/>
<line x1="414" y1="322" x2="421" y2="345" stroke="rgb(51,34,136)" stroke-width="1"/>
<line x1="421" y1="345" x2="428" y2="368" stroke="rgb(51,34,136)" stroke-width="1"/>
<line x1="428" y1="368" x2="435" y2="389" stroke="rgb(51,34,136)" stroke-width="1"/>
<line x1="435" y1="389" x2="442" y2="410" stroke="rgb(51,34,136)" stroke-width="1"/>
<line x1="442" y1="410" x2="449" y2="429" stroke="rgb(51,34,136)" stroke-width="1"/>
<line x1="449" y1="429" x2="456" y2="446" stroke="rgb(51,34,136)" stroke-width="1"/>
<line x1="456" y1="446" x2="463" y2="462" stroke="rgb(51,34,136)" stroke-width="1"/>
<line x1="463" y1="462" x2="470" y2="476" stroke="rgb(51,34,136)" stroke-width="1"/>
<line x1="470" y1="476" x2="477" y2="489" stroke="rgb(51,34,136)" stroke-width="1"/>
<line x1="477" y1="489" x2="484" y2="500" stroke="rgb(51,34,136)" stroke-width="1"/>
<line x1="484" y1="500" x2="491" y2="510" stroke="rgb(51,34,136)" stroke-width="1"/>
<line x1="491" y1="510" x2="498" y2="519" stroke="rgb(51,34,136)" stroke-width="1"/>
<line x1="498" y1="519" x2="505" y2="526" stroke="rgb(51,34,136)" stroke-width="1"/>
<line x1="505" y1="526" x2="512" y2="532" stroke="rgb(51,34,136)" stroke-width="1"/>
<line x1="512" y1="532" x2="519" y2="538" stroke="rgb(51,34,136)" stroke-width="1"/>
<line x1="519" y1="538" x2="526" y2="542" stroke="rgb(51,34,136)" stroke-width="1"/>
<line x1="526" y1="542" x2="533" y2="546" stroke="rgb(51,34,136)" stroke-width="1"/>
<line x1="533" y1="546" x2="540" y2="549" stroke="rgb(51,34,136)" stroke-width="1"/>
<line x1="540" y1="549" x2="547" y2="551" stroke="rgb(51,34,136)" stroke-width="1"/>
<line x1="547" y1="551" x2="554" y2="553" stroke="rgb(51,34,136)" stroke-width="1"/>
<line x1="554" y1="553" x2="561" y2="555" stroke="rgb(51,34,136)" stroke-width="1"/>
<line x1="561" y1="555" x2="568" y2="556" stroke="rgb(51,34,136)" stroke-width="1"/>
<line x1="568" y1="556" x2="575" y2="557" stroke="rgb(51,34,136)" stroke-width="1"/>
<line x1="575" y1="557" x2="582" y2="558" stroke="rgb(51,34,136)" stroke-width="1"/>
<line x1="582" y1="558" x2="589" y2="559" stroke="rgb(51,34,136)" stroke-width="1"/>
<line x1="589" y1="559" x2="596" y2="559" stroke="rgb(51,34,136)" stroke-width="1"/>
<line x1="596" y1="559" x2="603" y2="559" stroke="rgb(51,34,136)" stroke-width="1"/>
<line x1="603" y1="559" x2="610" y2="560" stroke="rgb(51,34,136)" stroke-width="1"/>
<line x1="610" y1="560" x2="617" y2="560" stroke="rgb(51,34,136)" stroke-width="1"/>
<line x1="617" y1="560" x2="624" y2="560" stroke="rgb(51,34,136)" stroke-width="1"/>
<line x1="624" y1="560" x2="631" y2="560" stroke="rgb(51,34,136)" stroke-width="1"/>
<line x1="631" y1="560" x2="638" y2="560" stroke="rgb(51,34,136)" stroke-width="1"/>
<line x1="638" y1="560" x2="645" y2="560" stroke="rgb(51,34,136)" stroke-width="1"/>
<line x1="645" y1="560" x2="652" y2="560" stroke="rgb(51,34,136)" stroke-width="1"/>
<line x1="652" y1="560" x2="659" y2="560" stroke="rgb(51,34,136)" stroke-width="1"/>
<line x1="659" y1="560" x2="666" y2="560" stroke="rgb(51,34,136)" stroke-width="1"/>
<line x1="666" y1="560" x2="673" y2="560" stroke="rgb(51,34,136)" stroke-width="1"/>
<line x1="673" y1="560" x2="680" y2="560" stroke="rgb(51,34,136)" stroke-width="1"/>
<line x1="680" y1="560" x2="687" y2="560" stroke="rgb(51,34,136)" stroke-width="1"/>
<line x1="687" y1="560" x2="694" y2="560" stroke="rgb(51,34,136)" stroke-width="1"/>
<line x1="694" y1="560" x2="701" y2="560" stroke="rgb(51,34,136)" stroke-width="1"/>
<line x1="701" y1="560" x2="708" y2="560" stroke="rgb(51,34,136)" stroke-width="1"/>
<line x1="708" y1="560" x2="715" y2="560" stroke="rgb(51,34,136)" stroke-width="1"/>
<line x1="715" y1="560" x2="722" y2="560" stroke="rgb(51,34,136)" stroke-width="1"/>
<line x1="722" y1="560" x2="729" y2="560" stroke="rgb(51,34,136)" stroke-width="1"/>
<line x1="729" y1="560" x2="736" y2="560" stroke="rgb(51,34,136)" stroke-width="1"/>
<line x1="736" y1="560" x2="743" y2="560" stroke="rgb(51,34,136)" stroke-width="1"/>
<line x1="743" y1="560" x2="750" y2="560" stroke="rgb(51,34,136)" stroke-width="1"/>
<line x1="750" y1="560" x2="757" y2="560" stroke="rgb(51,34,136)" stroke-width="1"/>
<rect width="149" height="43" x="641" y="40" style="fill:rgb(255,255,255);stroke:none"/>
<rect width="149" height="43" x="641" y="40" rx="0" ry="0" style="fill:none;stroke-width:1;stroke:rgb(192,192,192)"/>
<text x="644" y="55" fill="rgb(136,34,85)" font-family="Arial" font-size="12" font-weight="bold">GC count per read</text>
<text x="644" y="75" fill="rgb(51,34,136)" font-family="Arial" font-size="12" font-weight="bold">Theoretical Distribution</text>
</svg>
