<?xml version="1.0" standalone="no"?>
<!DOCTYPE svg PUBLIC "-//W3C//DTD SVG 1.1//EN" "http://www.w3.org/Graphics/SVG/1.1/DTD/svg11.dtd">
<svg width="800" height="600" version="1.1" xmlns="http://www.w3.org/2000/svg">
<rect width="800" height="600" x="0" y="0" style="fill:rgb(238,238,238);stroke:none"/>
<rect width="800" height="600" x="0" y="0" style="fill:rgb(255,255,255);stroke:none"/>
<text x="2" y="566" fill="rgb(0,0,0)" font-family="Arial" font-size="12">0</text>
<text x="2" y="514" fill="rgb(0,0,0)" font-family="Arial" font-size="12">10</text>
<text x="2" y="462" fill="rgb(0,0,0)" font-family="Arial" font-size="12">20</text>
<text x="2" y="410" fill="rgb(0,0,0)" font-family="Arial" font-size="12">30</text>
<text x="2" y="358" fill="rgb(0,0,0)" font-family="Arial" font-size="12">40</text>
<text x="2" y="306" fill="rgb(0,0,0)" font-family="Arial" font-size="12">50</text>
<text x="2" y="254" fill="rgb(0,0,0)" font-family="Arial" font-size="12">60</text>
<text x="2" y="202" fill="rgb(0,0,0)" font-family="Arial" font-size="12">70</text>
<text x="2" y="150" fill="rgb(0,0,0)" font-family="Arial" font-size="12">80</text>
<text x="2" y="98" fill="rgb(0,0,0)" font-family="Arial" font-size="12">90</text>
<text x="2" y="46" fill="rgb(0,0,0)" font-family="Arial" font-size="12">100</text>
<text x="312" y="30" fill="rgb(0,0,0)" font-family="Arial" font-size="12">Sequence content across all bases</text>
<line x1="26" y1="560" x2="790" y2="560" stroke="rgb(0,0,0)" stroke-width="1"/>
<line x1="26" y1="560" x2="26" y2="40" stroke="rgb(0,0,0)" stroke-width="1"/>
<text x="345" y="595" fill="rgb(0,0,0)" font-family="Arial" font-size="12">Position in read (bp)</text>
<text x="33" y="575" fill="rgb(0,0,0)" font-family="Arial" font-size="12">1</text>
<rect width="20" height="520" x="46" y="40" style="fill:rgb(230,230,230);stroke:none"/>
<text x="53" y="575" fill="rgb(0,0,0)" font-family="Arial" font-size="12">2</text>
<text x="73" y="575" fill="rgb(0,0,0)" font-family="Arial" font-size="12">3</text>
<rect width="20" height="520" x="86" y="40" style="fill:rgb(230,230,230);stroke:none"/>
<text x="93" y="575" fill="rgb(0,0,0)" font-family="Arial" font-size="12">4</text>
<text x="113" y="575" fill="rgb(0,0,0)" font-family="Arial" font-size="12">5</text>
<rect width="20" height="520" x="126" y="40" style="fill:rgb(230,230,230);stroke:none"/>
<text x="133" y="575" fill="rgb(0,0,0)" font-family="Arial" font-size="12">6</text>
<text x="153" y="575" fill="rgb(0,0,0)" font-family="Arial" font-size="12">7</text>
<rect width="20" height="520" x="166" y="40" style="fill:rgb(230,230,230);stroke:none"/>
<text x="173" y="575" fill="rgb(0,0,0)" font-family="Arial" font-size="12">8</text>
<text x="193" y="575" fill="rgb(0,0,0)" font-family="Arial" font-size="12">9</text>
<rect width="20" height="520" x="206" y="40" style="fill:rgb(230,230,230);stroke:none"/>
<text x="220" y="575" fill="rgb(0,0,0)" font-family="Arial" font-size="12">15-19</text>
<rect width="20" height="520" x="246" y="40" style="fill:rgb(230,230,230);stroke:none"/>
<text x="260" y="575" fill="rgb(0,0,0)" font-family="Arial" font-size="12">25-29</text>
<rect width="20" height="520" x="286" y="40" style="fill:rgb(230,230,230);stroke:none"/>
<text x="300" y="575" fill="rgb(0,0,0)" font-family="Arial" font-size="12">35-39</text>
<rect width="20" height="520" x="326" y="40" style="fill:rgb(230,230,230);stroke:none"/>
<text x="340" y="575" fill="rgb(0,0,0)" font-family="Arial" font-size="12">45-49</text>
<rect width="20" height="520" x="366" y="40" style="fill:rgb(230,230,230);stroke:none"/>
<text x="380" y="575" fill="rgb(0,0,0)" font-family="Arial" font-size="12">55-59</text>
<rect width="20" height="520" x="406" y="40" style="fill:rgb(230,230,230);stroke:none"/>
<text x="420" y="575" fill="rgb(0,0,0)" font-family="Arial" font-size="12">65-69</text>
<rect width="20" height="520" x="446" y="40" style="fill:rgb(230,230,230);stroke:none"/>
<text x="460" y="575" fill="rgb(0,0,0)" font-family="Arial" font-size="12">75-79</text>
<rect width="20" height="520" x="486" y="40" style="fill:rgb(230,230,230);stroke:none"/>
<text x="500" y="575" fill="rgb(0,0,0)" font-family="Arial" font-size="12">85-89</text>
<rect width="20" height="520" x="526" y="40" style="fill:rgb(230,230,230);stroke:none"/>
<text x="540" y="575" fill="rgb(0,0,0)" font-family="Arial" font-size="12">95-99</text>
<rect width="20" height="520" x="566" y="40" style="fill:rgb(230,230,230);stroke:none"/>
<rect width="20" height="520" x="606" y="40" style="fill:rgb(230,230,230);stroke:none"/>
<text x="593" y="575" fill="rgb(0,0,0)" font-family="Arial" font-size="12">110-114</text>
<rect width="20" height="520" x="646" y="40" style="fill:rgb(230,230,230);stroke:none"/>
<text x="653" y="575" fill="rgb(0,0,0)" font-family="Arial" font-size="12">125-129</text>
<rect width="20" height="520" x="686" y="40" style="fill:rgb(230,230,230);stroke:none"/>
<rect width="20" height="520" x="726" y="40" style="fill:rgb(230,230,230);stroke:none"/>
<text x="713" y="575" fill="rgb(0,0,0)" font-family="Arial" font-size="12">140-144</text>
<rect width="20" height="520" x="766" y="40" style="fill:rgb(230,230,230);stroke:none"/>
<text x="766" y="575" fill="rgb(0,0,0)" font-family="Arial" font-size="12">150</text>
<line x1="26" y1="560" x2="790" y2="560" stroke="rgb(180,180,180)" stroke-width="1"/>
<line x1="26" y1="508" x2="790" y2="508" stroke="rgb(180,180,180)" stroke-width="1"/>
<line x1="26" y1="456" x2="790" y2="456" stroke="rgb(180,180,180)" stroke-width="1"/>
<line x1="26" y1="404" x2="790" y2="404" stroke="rgb(180,180,180)" stroke-width="1"/>
<line x1="26" y1="352" x2="790" y2="352" stroke="rgb(180,180,180)" stroke-width="1"/>
<line x1="26" y1="300" x2="790" y2="300" stroke="rgb(180,180,180)" stroke-width="1"/>
<line x1="26" y1="248" x2="790" y2="248" stroke="rgb(180,180,180)" stroke-width="1"/>
<line x1="26" y1="196" x2="790" y2="196" stroke="rgb(180,180,180)" stroke-width="1"/>
<line x1="26" y1="144" x2="790" y2="144" stroke="rgb(180,180,180)" stroke-width="1"/>
<line x1="26" y1="92" x2="790" y2="92" stroke="rgb(180,180,180)" stroke-width="1"/>
<line x1="26" y1="40" x2="790" y2="40" stroke="rgb(180,180,180)" stroke-width="1"/>
<line x1="36" y1="404" x2="56" y2="403" stroke="rgb(136,34,85)" stroke-width="1"/>
<line x1="56" y1="403" x2="76" y2="399" stroke="rgb(136,34,85)" stroke-width="1"/>
<line x1="76" y1="399" x2="96" y2="400" stroke="rgb(136,34,85)" stroke-width="1"/>
<line x1="96" y1="400" x2="116" y2="401" stroke="rgb(136,34,85)" stroke-width="1"/>
<line x1="116" y1="401" x2="136" y2="407" stroke="rgb(136,34,85)" stroke-width="1"/>
<line x1="136" y1="407" x2="156" y2="405" stroke="rgb(136,34,85)" stroke-width="1"/>
<line x1="156" y1="405" x2="176" y2="403" stroke="rgb(136,34,85)" stroke-width="1"/>
<line x1="176" y1="403" x2="196" y2="401" stroke="rgb(136,34,85)" stroke-width="1"/>
<line x1="196" y1="401" x2="216" y2="404" stroke="rgb(136,34,85)" stroke-width="1"/>
<line x1="216" y1="404" x2="236" y2="404" stroke="rgb(136,34,85)" stroke-width="1"/>
<line x1="236" y1="404" x2="256" y2="405" stroke="rgb(136,34,85)" stroke-width="1"/>
<line x1="256" y1="405" x2="276" y2="406" stroke="rgb(136,34,85)" stroke-width="1"/>
<line x1="276" y1="406" x2="296" y2="406" stroke="rgb(136,34,85)" stroke-width="1"/>
<line x1="296" y1="406" x2="316" y2="407" stroke="rgb(136,34,85)" stroke-width="1"/>
<line x1="316" y1="407" x2="336" y2="407" stroke="rgb(136,34,85)" stroke-width="1"/>
<line x1="336" y1="407" x2="356" y2="407" stroke="rgb(136,34,85)" stroke-width="1"/>
<line x1="356" y1="407" x2="376" y2="407" stroke="rgb(136,34,85)" stroke-width="1"/>
<line x1="376" y1="407" x2="396" y2="408" stroke="rgb(136,34,85)" stroke-width="1"/>
<line x1="396" y1="408" x2="416" y2="408" stroke="rgb(136,34,85)" stroke-width="1"/>
<line x1="416" y1="408" x2="436" y2="408" stroke="rgb(136,34,85)" stroke-width="1"/>
<line x1="436" y1="408" x2="456" y2="408" stroke="rgb(136,34,85)" stroke-width="1"/>
<line x1="456" y1="408" x2="476" y2="408" stroke="rgb(136,34,85)" stroke-width="1"/>
<line x1="476" y1="408" x2="496" y2="408" stroke="rgb(136,34,85)" stroke-width="1"/>
<line x1="496" y1="408" x2="516" y2="408" stroke="rgb(136,34,85)" stroke-width="1"/>
<line x1="516" y1="408" x2="536" y2="408" stroke="rgb(136,34,85)" stroke-width="1"/>
<line x1="536" y1="408" x2="556" y2="408" stroke="rgb(136,34,85)" stroke-width="1"/>
<line x1="556" y1="408" x2="576" y2="408" stroke="rgb(136,34,85)" stroke-width="1"/>
<line x1="576" y1="408" x2="596" y2="408" stroke="rgb(136,34,85)" stroke-width="1"/>
<line x1="596" y1="408" x2="616" y2="409" stroke="rgb(136,34,85)" stroke-width="1"/>
<line x1="616" y1="409" x2="636" y2="409" stroke="rgb(136,34,85)" stroke-width="1"/>
<line x1="636" y1="409" x2="656" y2="409" stroke="rgb(136,34,85)" stroke-width="1"/>
<line x1="656" y1="409" x2="676" y2="409" stroke="rgb(136,34,85)" stroke-width="1"/>
<line x1="676" y1="409" x2="696" y2="409" stroke="rgb(136,34,85)" stroke-width="1"/>
<line x1="696" y1="409" x2="716" y2="409" stroke="rgb(136,34,85)" stroke-width="1"/>
<line x1="716" y1="409" x2="736" y2="409" stroke="rgb(136,34,85)" stroke-width="1"/>
<line x1="736" y1="409" x2="756" y2="409" stroke="rgb(136,34,85)" stroke-width="1"/>
<line x1="756" y1="409" x2="776" y2="409" stroke="rgb(136,34,85)" stroke-width="1"/>
<line x1="36" y1="449" x2="56" y2="460" stroke="rgb(51,34,136)" stroke-width="1"/>
<line x1="56" y1="460" x2="76" y2="456" stroke="rgb(51,34,136)" stroke-width="1"/>
<line x1="76" y1="456" x2="96" y2="457" stroke="rgb(51,34,136)" stroke-width="1"/>
<line x1="96" y1="457" x2="116" y2="460" stroke="rgb(51,34,136)" stroke-width="1"/>
<line x1="116" y1="460" x2="136" y2="457" stroke="rgb(51,34,136)" stroke-width="1"/>
<line x1="136" y1="457" x2="156" y2="459" stroke="rgb(51,34,136)" stroke-width="1"/>
<line x1="156" y1="459" x2="176" y2="456" stroke="rgb(51,34,136)" stroke-width="1"/>
<line x1="176" y1="456" x2="196" y2="456" stroke="rgb(51,34,136)" stroke-width="1"/>
<line x1="196" y1="456" x2="216" y2="456" stroke="rgb(51,34,136)" stroke-width="1"/>
<line x1="216" y1="456" x2="236" y2="456" stroke="rgb(51,34,136)" stroke-width="1"/>
<line x1="236" y1="456" x2="256" y2="455" stroke="rgb(51,34,136)" stroke-width="1"/>
<line x1="256" y1="455" x2="276" y2="454" stroke="rgb(51,34,136)" stroke-width="1"/>
<line x1="276" y1="454" x2="296" y2="454" stroke="rgb(51,34,136)" stroke-width="1"/>
<line x1="296" y1="454" x2="316" y2="454" stroke="rgb(51,34,136)" stroke-width="1"/>
<line x1="316" y1="454" x2="336" y2="454" stroke="rgb(51,34,136)" stroke-width="1"/>
<line x1="336" y1="454" x2="356" y2="453" stroke="rgb(51,34,136)" stroke-width="1"/>
<line x1="356" y1="453" x2="376" y2="453" stroke="rgb(51,34,136)" stroke-width="1"/>
<line x1="376" y1="453" x2="396" y2="453" stroke="rgb(51,34,136)" stroke-width="1"/>
<line x1="396" y1="453" x2="416" y2="453" stroke="rgb(51,34,136)" stroke-width="1"/>
<line x1="416" y1="453" x2="436" y2="453" stroke="rgb(51,34,136)" stroke-width="1"/>
<line x1="436" y1="453" x2="456" y2="453" stroke="rgb(51,34,136)" stroke-width="1"/>
<line x1="456" y1="453" x2="476" y2="453" stroke="rgb(51,34,136)" stroke-width="1"/>
<line x1="476" y1="453" x2="496" y2="453" stroke="rgb(51,34,136)" stroke-width="1"/>
<line x1="496" y1="453" x2="516" y2="453" stroke="rgb(51,34,136)" stroke-width="1"/>
<line x1="516" y1="453" x2="536" y2="453" stroke="rgb(51,34,136)" stroke-width="1"/>
<line x1="536" y1="453" x2="556" y2="453" stroke="rgb(51,34,136)" stroke-width="1"/>
<line x1="556" y1="453" x2="576" y2="453" stroke="rgb(51,34,136)" stroke-width="1"/>
<line x1="576" y1="453" x2="596" y2="453" stroke="rgb(51,34,136)" stroke-width="1"/>
<line x1="596" y1="453" x2="616" y2="453" stroke="rgb(51,34,136)" stroke-width="1"/>
<line x1="616" y1="453" x2="636" y2="453" stroke="rgb(51,34,136)" stroke-width="1"/>
<line x1="636" y1="453" x2="656" y2="453" stroke="rgb(51,34,136)" stroke-width="1"/>
<line x1="656" y1="453" x2="676" y2="453" stroke="rgb(51,34,136)" stroke-width="1"/>
<line x1="676" y1="453" x2="696" y2="453" stroke="rgb(51,34,136)" stroke-width="1"/>
<line x1="696" y1="453" x2="716" y2="452" stroke="rgb(51,34,136)" stroke-width="1"/>
<line x1="716" y1="452" x2="736" y2="453" stroke="rgb(51,34,136)" stroke-width="1"/>
<line x1="736" y1="453" x2="756" y2="453" stroke="rgb(51,34,136)" stroke-width="1"/>
<line x1="756" y1="453" x2="776" y2="453" stroke="rgb(51,34,136)" stroke-width="1"/>
<line x1="36" y1="396" x2="56" y2="400" stroke="rgb(17,119,51)" stroke-width="1"/>
<line x1="56" y1="400" x2="76" y2="406" stroke="rgb(17,119,51)" stroke-width="1"/>
<line x1="76" y1="406" x2="96" y2="407" stroke="rgb(17,119,51)" stroke-width="1"/>
<line x1="96" y1="407" x2="116" y2="405" stroke="rgb(17,119,51)" stroke-width="1"/>
<line x1="116" y1="405" x2="136" y2="404" stroke="rgb(17,119,51)" stroke-width="1"/>
<line x1="136" y1="404" x2="156" y2="405" stroke="rgb(17,119,51)" stroke-width="1"/>
<line x1="156" y1="405" x2="176" y2="406" stroke="rgb(17,119,51)" stroke-width="1"/>
<line x1="176" y1="406" x2="196" y2="408" stroke="rgb(17,119,51)" stroke-width="1"/>
<line x1="196" y1="408" x2="216" y2="406" stroke="rgb(17,119,51)" stroke-width="1"/>
<line x1="216" y1="406" x2="236" y2="406" stroke="rgb(17,119,51)" stroke-width="1"/>
<line x1="236" y1="406" x2="256" y2="407" stroke="rgb(17,119,51)" stroke-width="1"/>
<line x1="256" y1="407" x2="276" y2="408" stroke="rgb(17,119,51)" stroke-width="1"/>
<line x1="276" y1="408" x2="296" y2="408" stroke="rgb(17,119,51)" stroke-width="1"/>
<line x1="296" y1="408" x2="316" y2="408" stroke="rgb(17,119,51)" stroke-width="1"/>
<line x1="316" y1="408" x2="336" y2="409" stroke="rgb(17,119,51)" stroke-width="1"/>
<line x1="336" y1="409" x2="356" y2="409" stroke="rgb(17,119,51)" stroke-width="1"/>
<line x1="356" y1="409" x2="376" y2="409" stroke="rgb(17,119,51)" stroke-width="1"/>
<line x1="376" y1="409" x2="396" y2="409" stroke="rgb(17,119,51)" stroke-width="1"/>
<line x1="396" y1="409" x2="416" y2="409" stroke="rgb(17,119,51)" stroke-width="1"/>
<line x1="416" y1="409" x2="436" y2="409" stroke="rgb(17,119,51)" stroke-width="1"/>
<line x1="436" y1="409" x2="456" y2="409" stroke="rgb(17,119,51)" stroke-width="1"/>
<line x1="456" y1="409" x2="476" y2="409" stroke="rgb(17,119,51)" stroke-width="1"/>
<line x1="476" y1="409" x2="496" y2="409" stroke="rgb(17,119,51)" stroke-width="1"/>
<line x1="496" y1="409" x2="516" y2="409" stroke="rgb(17,119,51)" stroke-width="1"/>
<line x1="516" y1="409" x2="536" y2="409" stroke="rgb(17,119,51)" stroke-width="1"/>
<line x1="536" y1="409" x2="556" y2="409" stroke="rgb(17,119,51)" stroke-width="1"/>
<line x1="556" y1="409" x2="576" y2="409" stroke="rgb(17,119,51)" stroke-width="1"/>
<line x1="576" y1="409" x2="596" y2="409" stroke="rgb(17,119,51)" stroke-width="1"/>
<line x1="596" y1="409" x2="616" y2="409" stroke="rgb(17,119,51)" stroke-width="1"/>
<line x1="616" y1="409" x2="636" y2="409" stroke="rgb(17,119,51)" stroke-width="1"/>
<line x1="636" y1="409" x2="656" y2="409" stroke="rgb(17,119,51)" stroke-width="1"/>
<line x1="656" y1="409" x2="676" y2="408" stroke="rgb(17,119,51)" stroke-width="1"/>
<line x1="676" y1="408" x2="696" y2="409" stroke="rgb(17,119,51)" stroke-width="1"/>
<line x1="696" y1="409" x2="716" y2="409" stroke="rgb(17,119,51)" stroke-width="1"/>
<line x1="716" y1="409" x2="736" y2="409" stroke="rgb(17,119,51)" stroke-width="1"/>
<line x1="736" y1="409" x2="756" y2="408" stroke="rgb(17,119,51)" stroke-width="1"/>
<line x1="756" y1="408" x2="776" y2="408" stroke="rgb(17,119,51)" stroke-width="1"/>
<line x1="36" y1="473" x2="56" y2="459" stroke="rgb(221,204,119)" stroke-width="1"/>
<line x1="56" y1="459" x2="76" y2="460" stroke="rgb(221,204,119)" stroke-width="1"/>
<line x1="76" y1="460" x2="96" y2="458" stroke="rgb(221,204,119)" stroke-width="1"/>
<line x1="96" y1="458" x2="116" y2="455" stroke="rgb(221,204,119)" stroke-width="1"/>
<line x1="116" y1="455" x2="136" y2="454" stroke="rgb(221,204,119)" stroke-width="1"/>
<line x1="136" y1="454" x2="156" y2="453" stroke="rgb(221,204,119)" stroke-width="1"/>
<line x1="156" y1="453" x2="176" y2="457" stroke="rgb(221,204,119)" stroke-width="1"/>
<line x1="176" y1="457" x2="196" y2="458" stroke="rgb(221,204,119)" stroke-width="1"/>
<line x1="196" y1="458" x2="216" y2="456" stroke="rgb(221,204,119)" stroke-width="1"/>
<line x1="216" y1="456" x2="236" y2="456" stroke="rgb(221,204,119)" stroke-width="1"/>
<line x1="236" y1="456" x2="256" y2="455" stroke="rgb(221,204,119)" stroke-width="1"/>
<line x1="256" y1="455" x2="276" y2="454" stroke="rgb(221,204,119)" stroke-width="1"/>
<line x1="276" y1="454" x2="296" y2="453" stroke="rgb(221,204,119)" stroke-width="1"/>
<line x1="296" y1="453" x2="316" y2="453" stroke="rgb(221,204,119)" stroke-width="1"/>
<line x1="316" y1="453" x2="336" y2="453" stroke="rgb(221,204,119)" stroke-width="1"/>
<line x1="336" y1="453" x2="356" y2="453" stroke="rgb(221,204,119)" stroke-width="1"/>
<line x1="356" y1="453" x2="376" y2="453" stroke="rgb(221,204,119)" stroke-width="1"/>
<line x1="376" y1="453" x2="396" y2="452" stroke="rgb(221,204,119)" stroke-width="1"/>
<line x1="396" y1="452" x2="416" y2="453" stroke="rgb(221,204,119)" stroke-width="1"/>
<line x1="416" y1="453" x2="436" y2="452" stroke="rgb(221,204,119)" stroke-width="1"/>
<line x1="436" y1="452" x2="456" y2="452" stroke="rgb(221,204,119)" stroke-width="1"/>
<line x1="456" y1="452" x2="476" y2="452" stroke="rgb(221,204,119)" stroke-width="1"/>
<line x1="476" y1="452" x2="496" y2="452" stroke="rgb(221,204,119)" stroke-width="1"/>
<line x1="496" y1="452" x2="516" y2="452" stroke="rgb(221,204,119)" stroke-width="1"/>
<line x1="516" y1="452" x2="536" y2="452" stroke="rgb(221,204,119)" stroke-width="1"/>
<line x1="536" y1="452" x2="556" y2="452" stroke="rgb(221,204,119)" stroke-width="1"/>
<line x1="556" y1="452" x2="576" y2="452" stroke="rgb(221,204,119)" stroke-width="1"/>
<line x1="576" y1="452" x2="596" y2="452" stroke="rgb(221,204,119)" stroke-width="1"/>
<line x1="596" y1="452" x2="616" y2="452" stroke="rgb(221,204,119)" stroke-width="1"/>
<line x1="616" y1="452" x2="636" y2="452" stroke="rgb(221,204,119)" stroke-width="1"/>
<line x1="636" y1="452" x2="656" y2="452" stroke="rgb(221,204,119)" stroke-width="1"/>
<line x1="656" y1="452" x2="676" y2="452" stroke="rgb(221,204,119)" stroke-width="1"/>
<line x1="676" y1="452" x2="696" y2="452" stroke="rgb(221,204,119)" stroke-width="1"/>
<line x1="696" y1="452" x2="716" y2="452" stroke="rgb(221,204,119)" stroke-width="1"/>
<line x1="716" y1="452" x2="736" y2="452" stroke="rgb(221,204,119)" stroke-width="1"/>
<line x1="736" y1="452" x2="756" y2="452" stroke="rgb(221,204,119)" stroke-width="1"/>
<line x1="756" y1="452" x2="776" y2="452" stroke="rgb(221,204,119)" stroke-width="1"/>
<rect width="26" height="83" x="764" y="40" style="fill:rgb(255,255,255);stroke:none"/>
<rect width="26" height="83" x="764" y="40" rx="0" ry="0" style="fill:none;stroke-width:1;stroke:rgb(192,192,192)"/>
<text x="767" y="55" fill="rgb(136,34,85)" font-family="Arial" font-size="12" font-weight="bold">%T</text>
<text x="767" y="75" fill="rgb(51,34,136)" font-family="Arial" font-size="12" font-weight="bold">%C</text>
<text x="767" y="95" fill="rgb(17,119,51)" font-family="Arial" font-size="12" font-weight="bold">%A</text>
<text x="767" y="115" fill="rgb(221,204,119)" font-family="Arial" font-size="12" font-weight="bold">%G</text>
</svg>
